<svg xmlns="http://www.w3.org/2000/svg" viewBox="0 0 1080 1920" fill="none"><g stroke="#a48b70" stroke-width="2" stroke-linecap="round" opacity="0.58"><path d="M12 250 C70 180 95 120 190 82 C250 58 292 22 330 8"/><path d="M12 1670 C80 1740 112 1810 205 1850 C250 1870 300 1905 340 1912"/><path d="M1068 250 C1010 180 985 120 890 82 C830 58 788 22 750 8"/><path d="M1068 1670 C1000 1740 968 1810 875 1850 C830 1870 780 1905 740 1912"/><path d="M95 140 C80 210 45 260 15 305"/><path d="M985 140 C1000 210 1035 260 1065 305"/><path d="M95 1780 C80 1710 45 1660 15 1615"/><path d="M985 1780 C1000 1710 1035 1660 1065 1615"/></g><g fill="#b39a7e" opacity="0.48"><path d="M80 200c25-40 65-38 74-2-30 8-52 8-74 2Z"/><path d="M125 145c38-18 65 2 58 33-24-3-42-13-58-33Z"/><path d="M185 92c32-12 54 9 43 35-20-2-33-12-43-35Z"/><path d="M1000 200c-25-40-65-38-74-2 30 8 52 8 74 2Z"/><path d="M955 145c-38-18-65 2-58 33 24-3 42-13 58-33Z"/><path d="M895 92c-32-12-54 9-43 35 20-2 33-12 43-35Z"/><path d="M80 1720c25 40 65 38 74 2-30-8-52-8-74-2Z"/><path d="M125 1775c38 18 65-2 58-33-24 3-42 13-58 33Z"/><path d="M185 1828c32 12 54-9 43-35-20 2-33 12-43 35Z"/><path d="M1000 1720c-25 40-65 38-74 2 30-8 52-8 74-2Z"/><path d="M955 1775c-38 18-65-2-58-33 24-3 42-13 58 33Z"/><path d="M895 1828c-32 12-54-9-43-35 20-2 33-12 43 35Z"/></g><g fill="#8f7760" opacity="0.45"><circle cx="46" cy="116" r="7"/><circle cx="1034" cy="116" r="7"/><circle cx="46" cy="1804" r="7"/><circle cx="1034" cy="1804" r="7"/></g></svg>